<mxfile host="app.diagrams.net" modified="2023-06-01T19:24:07.372Z" agent="Mozilla/5.0 (Windows NT 10.0; Win64; x64) AppleWebKit/537.36 (KHTML, like Gecko) Chrome/113.0.0.0 Safari/537.36 Edg/113.0.1774.57" etag="W05lYquSfKW__hVCtwxW" version="21.3.6" type="device">
  <diagram name="PÃ¡gina-1" id="3j4W_oG8lDa0zycn2LDr">
    <mxGraphModel dx="929" dy="1469" grid="0" gridSize="10" guides="1" tooltips="1" connect="1" arrows="1" fold="1" page="0" pageScale="1" pageWidth="827" pageHeight="1169" math="0" shadow="0">
      <root>
        <mxCell id="0" />
        <mxCell id="1" parent="0" />
        <mxCell id="edPVDXVWWwwk5Bqhe34E-1" value="Estudiante" style="swimlane;fontStyle=1;align=center;verticalAlign=top;childLayout=stackLayout;horizontal=1;startSize=26;horizontalStack=0;resizeParent=1;resizeParentMax=0;resizeLast=0;collapsible=1;marginBottom=0;whiteSpace=wrap;html=1;fontSize=16;" vertex="1" parent="1">
          <mxGeometry x="6" y="-102" width="315" height="338" as="geometry" />
        </mxCell>
        <mxCell id="edPVDXVWWwwk5Bqhe34E-2" value="+ Id: String" style="text;strokeColor=none;fillColor=none;align=left;verticalAlign=top;spacingLeft=4;spacingRight=4;overflow=hidden;rotatable=0;points=[[0,0.5],[1,0.5]];portConstraint=eastwest;whiteSpace=wrap;html=1;fontSize=16;" vertex="1" parent="edPVDXVWWwwk5Bqhe34E-1">
          <mxGeometry y="26" width="315" height="26" as="geometry" />
        </mxCell>
        <mxCell id="edPVDXVWWwwk5Bqhe34E-6" value="+ Nombre: String" style="text;strokeColor=none;fillColor=none;align=left;verticalAlign=top;spacingLeft=4;spacingRight=4;overflow=hidden;rotatable=0;points=[[0,0.5],[1,0.5]];portConstraint=eastwest;whiteSpace=wrap;html=1;fontSize=16;" vertex="1" parent="edPVDXVWWwwk5Bqhe34E-1">
          <mxGeometry y="52" width="315" height="26" as="geometry" />
        </mxCell>
        <mxCell id="edPVDXVWWwwk5Bqhe34E-7" value="+ Estado: String" style="text;strokeColor=none;fillColor=none;align=left;verticalAlign=top;spacingLeft=4;spacingRight=4;overflow=hidden;rotatable=0;points=[[0,0.5],[1,0.5]];portConstraint=eastwest;whiteSpace=wrap;html=1;fontSize=16;" vertex="1" parent="edPVDXVWWwwk5Bqhe34E-1">
          <mxGeometry y="78" width="315" height="26" as="geometry" />
        </mxCell>
        <mxCell id="edPVDXVWWwwk5Bqhe34E-8" value="+ Genero: String" style="text;strokeColor=none;fillColor=none;align=left;verticalAlign=top;spacingLeft=4;spacingRight=4;overflow=hidden;rotatable=0;points=[[0,0.5],[1,0.5]];portConstraint=eastwest;whiteSpace=wrap;html=1;fontSize=16;" vertex="1" parent="edPVDXVWWwwk5Bqhe34E-1">
          <mxGeometry y="104" width="315" height="26" as="geometry" />
        </mxCell>
        <mxCell id="edPVDXVWWwwk5Bqhe34E-9" value="+ Direccion: String" style="text;strokeColor=none;fillColor=none;align=left;verticalAlign=top;spacingLeft=4;spacingRight=4;overflow=hidden;rotatable=0;points=[[0,0.5],[1,0.5]];portConstraint=eastwest;whiteSpace=wrap;html=1;fontSize=16;" vertex="1" parent="edPVDXVWWwwk5Bqhe34E-1">
          <mxGeometry y="130" width="315" height="26" as="geometry" />
        </mxCell>
        <mxCell id="edPVDXVWWwwk5Bqhe34E-10" value="+ CorreoElectronico: String" style="text;strokeColor=none;fillColor=none;align=left;verticalAlign=top;spacingLeft=4;spacingRight=4;overflow=hidden;rotatable=0;points=[[0,0.5],[1,0.5]];portConstraint=eastwest;whiteSpace=wrap;html=1;fontSize=16;" vertex="1" parent="edPVDXVWWwwk5Bqhe34E-1">
          <mxGeometry y="156" width="315" height="26" as="geometry" />
        </mxCell>
        <mxCell id="edPVDXVWWwwk5Bqhe34E-11" value="+ NumTelefono: Integer" style="text;strokeColor=none;fillColor=none;align=left;verticalAlign=top;spacingLeft=4;spacingRight=4;overflow=hidden;rotatable=0;points=[[0,0.5],[1,0.5]];portConstraint=eastwest;whiteSpace=wrap;html=1;fontSize=16;" vertex="1" parent="edPVDXVWWwwk5Bqhe34E-1">
          <mxGeometry y="182" width="315" height="26" as="geometry" />
        </mxCell>
        <mxCell id="edPVDXVWWwwk5Bqhe34E-12" value="+ PromedioAcumul: Double" style="text;strokeColor=none;fillColor=none;align=left;verticalAlign=top;spacingLeft=4;spacingRight=4;overflow=hidden;rotatable=0;points=[[0,0.5],[1,0.5]];portConstraint=eastwest;whiteSpace=wrap;html=1;fontSize=16;" vertex="1" parent="edPVDXVWWwwk5Bqhe34E-1">
          <mxGeometry y="208" width="315" height="26" as="geometry" />
        </mxCell>
        <mxCell id="edPVDXVWWwwk5Bqhe34E-13" value="+ FechaNacimiento: Date" style="text;strokeColor=none;fillColor=none;align=left;verticalAlign=top;spacingLeft=4;spacingRight=4;overflow=hidden;rotatable=0;points=[[0,0.5],[1,0.5]];portConstraint=eastwest;whiteSpace=wrap;html=1;fontSize=16;" vertex="1" parent="edPVDXVWWwwk5Bqhe34E-1">
          <mxGeometry y="234" width="315" height="26" as="geometry" />
        </mxCell>
        <mxCell id="edPVDXVWWwwk5Bqhe34E-3" value="" style="line;strokeWidth=1;fillColor=none;align=left;verticalAlign=middle;spacingTop=-1;spacingLeft=3;spacingRight=3;rotatable=0;labelPosition=right;points=[];portConstraint=eastwest;strokeColor=inherit;fontSize=16;" vertex="1" parent="edPVDXVWWwwk5Bqhe34E-1">
          <mxGeometry y="260" width="315" height="8" as="geometry" />
        </mxCell>
        <mxCell id="edPVDXVWWwwk5Bqhe34E-4" value="+ SolicitarOrientacion()" style="text;strokeColor=none;fillColor=none;align=left;verticalAlign=top;spacingLeft=4;spacingRight=4;overflow=hidden;rotatable=0;points=[[0,0.5],[1,0.5]];portConstraint=eastwest;whiteSpace=wrap;html=1;fontSize=16;" vertex="1" parent="edPVDXVWWwwk5Bqhe34E-1">
          <mxGeometry y="268" width="315" height="26" as="geometry" />
        </mxCell>
        <mxCell id="edPVDXVWWwwk5Bqhe34E-15" value="+ completarFormulario()" style="text;strokeColor=none;fillColor=none;align=left;verticalAlign=top;spacingLeft=4;spacingRight=4;overflow=hidden;rotatable=0;points=[[0,0.5],[1,0.5]];portConstraint=eastwest;whiteSpace=wrap;html=1;fontSize=16;" vertex="1" parent="edPVDXVWWwwk5Bqhe34E-1">
          <mxGeometry y="294" width="315" height="44" as="geometry" />
        </mxCell>
        <mxCell id="edPVDXVWWwwk5Bqhe34E-18" value="Orientador" style="swimlane;fontStyle=1;align=center;verticalAlign=top;childLayout=stackLayout;horizontal=1;startSize=26;horizontalStack=0;resizeParent=1;resizeParentMax=0;resizeLast=0;collapsible=1;marginBottom=0;whiteSpace=wrap;html=1;fontSize=16;" vertex="1" parent="1">
          <mxGeometry x="478" y="-96" width="315" height="320" as="geometry" />
        </mxCell>
        <mxCell id="edPVDXVWWwwk5Bqhe34E-19" value="+ Id: String" style="text;strokeColor=none;fillColor=none;align=left;verticalAlign=top;spacingLeft=4;spacingRight=4;overflow=hidden;rotatable=0;points=[[0,0.5],[1,0.5]];portConstraint=eastwest;whiteSpace=wrap;html=1;fontSize=16;" vertex="1" parent="edPVDXVWWwwk5Bqhe34E-18">
          <mxGeometry y="26" width="315" height="26" as="geometry" />
        </mxCell>
        <mxCell id="edPVDXVWWwwk5Bqhe34E-20" value="+ Nombre: String" style="text;strokeColor=none;fillColor=none;align=left;verticalAlign=top;spacingLeft=4;spacingRight=4;overflow=hidden;rotatable=0;points=[[0,0.5],[1,0.5]];portConstraint=eastwest;whiteSpace=wrap;html=1;fontSize=16;" vertex="1" parent="edPVDXVWWwwk5Bqhe34E-18">
          <mxGeometry y="52" width="315" height="26" as="geometry" />
        </mxCell>
        <mxCell id="edPVDXVWWwwk5Bqhe34E-21" value="+ Estado: String" style="text;strokeColor=none;fillColor=none;align=left;verticalAlign=top;spacingLeft=4;spacingRight=4;overflow=hidden;rotatable=0;points=[[0,0.5],[1,0.5]];portConstraint=eastwest;whiteSpace=wrap;html=1;fontSize=16;" vertex="1" parent="edPVDXVWWwwk5Bqhe34E-18">
          <mxGeometry y="78" width="315" height="26" as="geometry" />
        </mxCell>
        <mxCell id="edPVDXVWWwwk5Bqhe34E-24" value="+ CorreoElectronico: String" style="text;strokeColor=none;fillColor=none;align=left;verticalAlign=top;spacingLeft=4;spacingRight=4;overflow=hidden;rotatable=0;points=[[0,0.5],[1,0.5]];portConstraint=eastwest;whiteSpace=wrap;html=1;fontSize=16;" vertex="1" parent="edPVDXVWWwwk5Bqhe34E-18">
          <mxGeometry y="104" width="315" height="26" as="geometry" />
        </mxCell>
        <mxCell id="edPVDXVWWwwk5Bqhe34E-25" value="+ NumTelefono: Integer" style="text;strokeColor=none;fillColor=none;align=left;verticalAlign=top;spacingLeft=4;spacingRight=4;overflow=hidden;rotatable=0;points=[[0,0.5],[1,0.5]];portConstraint=eastwest;whiteSpace=wrap;html=1;fontSize=16;" vertex="1" parent="edPVDXVWWwwk5Bqhe34E-18">
          <mxGeometry y="130" width="315" height="26" as="geometry" />
        </mxCell>
        <mxCell id="edPVDXVWWwwk5Bqhe34E-27" value="+ FechaNacimiento: Date" style="text;strokeColor=none;fillColor=none;align=left;verticalAlign=top;spacingLeft=4;spacingRight=4;overflow=hidden;rotatable=0;points=[[0,0.5],[1,0.5]];portConstraint=eastwest;whiteSpace=wrap;html=1;fontSize=16;" vertex="1" parent="edPVDXVWWwwk5Bqhe34E-18">
          <mxGeometry y="156" width="315" height="26" as="geometry" />
        </mxCell>
        <mxCell id="edPVDXVWWwwk5Bqhe34E-32" value="+ horarioDisponible: String" style="text;strokeColor=none;fillColor=none;align=left;verticalAlign=top;spacingLeft=4;spacingRight=4;overflow=hidden;rotatable=0;points=[[0,0.5],[1,0.5]];portConstraint=eastwest;whiteSpace=wrap;html=1;fontSize=16;" vertex="1" parent="edPVDXVWWwwk5Bqhe34E-18">
          <mxGeometry y="182" width="315" height="26" as="geometry" />
        </mxCell>
        <mxCell id="edPVDXVWWwwk5Bqhe34E-33" value="+ citasAgendadas: IdCita" style="text;strokeColor=none;fillColor=none;align=left;verticalAlign=top;spacingLeft=4;spacingRight=4;overflow=hidden;rotatable=0;points=[[0,0.5],[1,0.5]];portConstraint=eastwest;whiteSpace=wrap;html=1;fontSize=16;" vertex="1" parent="edPVDXVWWwwk5Bqhe34E-18">
          <mxGeometry y="208" width="315" height="26" as="geometry" />
        </mxCell>
        <mxCell id="edPVDXVWWwwk5Bqhe34E-28" value="" style="line;strokeWidth=1;fillColor=none;align=left;verticalAlign=middle;spacingTop=-1;spacingLeft=3;spacingRight=3;rotatable=0;labelPosition=right;points=[];portConstraint=eastwest;strokeColor=inherit;fontSize=16;" vertex="1" parent="edPVDXVWWwwk5Bqhe34E-18">
          <mxGeometry y="234" width="315" height="8" as="geometry" />
        </mxCell>
        <mxCell id="edPVDXVWWwwk5Bqhe34E-29" value="+ enviarFormularioVocacional()" style="text;strokeColor=none;fillColor=none;align=left;verticalAlign=top;spacingLeft=4;spacingRight=4;overflow=hidden;rotatable=0;points=[[0,0.5],[1,0.5]];portConstraint=eastwest;whiteSpace=wrap;html=1;fontSize=16;" vertex="1" parent="edPVDXVWWwwk5Bqhe34E-18">
          <mxGeometry y="242" width="315" height="26" as="geometry" />
        </mxCell>
        <mxCell id="edPVDXVWWwwk5Bqhe34E-30" value="+ agendarCita()" style="text;strokeColor=none;fillColor=none;align=left;verticalAlign=top;spacingLeft=4;spacingRight=4;overflow=hidden;rotatable=0;points=[[0,0.5],[1,0.5]];portConstraint=eastwest;whiteSpace=wrap;html=1;fontSize=16;" vertex="1" parent="edPVDXVWWwwk5Bqhe34E-18">
          <mxGeometry y="268" width="315" height="26" as="geometry" />
        </mxCell>
        <mxCell id="edPVDXVWWwwk5Bqhe34E-31" value="+ ingresarComentariosCita()" style="text;strokeColor=none;fillColor=none;align=left;verticalAlign=top;spacingLeft=4;spacingRight=4;overflow=hidden;rotatable=0;points=[[0,0.5],[1,0.5]];portConstraint=eastwest;whiteSpace=wrap;html=1;fontSize=16;" vertex="1" parent="edPVDXVWWwwk5Bqhe34E-18">
          <mxGeometry y="294" width="315" height="26" as="geometry" />
        </mxCell>
        <mxCell id="edPVDXVWWwwk5Bqhe34E-34" value="Cita" style="swimlane;fontStyle=1;align=center;verticalAlign=top;childLayout=stackLayout;horizontal=1;startSize=26;horizontalStack=0;resizeParent=1;resizeParentMax=0;resizeLast=0;collapsible=1;marginBottom=0;whiteSpace=wrap;html=1;fontSize=16;" vertex="1" parent="1">
          <mxGeometry x="487" y="367" width="315" height="320" as="geometry" />
        </mxCell>
        <mxCell id="edPVDXVWWwwk5Bqhe34E-35" value="+ Id: String" style="text;strokeColor=none;fillColor=none;align=left;verticalAlign=top;spacingLeft=4;spacingRight=4;overflow=hidden;rotatable=0;points=[[0,0.5],[1,0.5]];portConstraint=eastwest;whiteSpace=wrap;html=1;fontSize=16;" vertex="1" parent="edPVDXVWWwwk5Bqhe34E-34">
          <mxGeometry y="26" width="315" height="26" as="geometry" />
        </mxCell>
        <mxCell id="edPVDXVWWwwk5Bqhe34E-36" value="+ fechaHora: DateTime" style="text;strokeColor=none;fillColor=none;align=left;verticalAlign=top;spacingLeft=4;spacingRight=4;overflow=hidden;rotatable=0;points=[[0,0.5],[1,0.5]];portConstraint=eastwest;whiteSpace=wrap;html=1;fontSize=16;" vertex="1" parent="edPVDXVWWwwk5Bqhe34E-34">
          <mxGeometry y="52" width="315" height="26" as="geometry" />
        </mxCell>
        <mxCell id="edPVDXVWWwwk5Bqhe34E-37" value="+ duracion: Integer" style="text;strokeColor=none;fillColor=none;align=left;verticalAlign=top;spacingLeft=4;spacingRight=4;overflow=hidden;rotatable=0;points=[[0,0.5],[1,0.5]];portConstraint=eastwest;whiteSpace=wrap;html=1;fontSize=16;" vertex="1" parent="edPVDXVWWwwk5Bqhe34E-34">
          <mxGeometry y="78" width="315" height="26" as="geometry" />
        </mxCell>
        <mxCell id="edPVDXVWWwwk5Bqhe34E-38" value="+ asunto: String" style="text;strokeColor=none;fillColor=none;align=left;verticalAlign=top;spacingLeft=4;spacingRight=4;overflow=hidden;rotatable=0;points=[[0,0.5],[1,0.5]];portConstraint=eastwest;whiteSpace=wrap;html=1;fontSize=16;" vertex="1" parent="edPVDXVWWwwk5Bqhe34E-34">
          <mxGeometry y="104" width="315" height="26" as="geometry" />
        </mxCell>
        <mxCell id="edPVDXVWWwwk5Bqhe34E-39" value="+ estado: String" style="text;strokeColor=none;fillColor=none;align=left;verticalAlign=top;spacingLeft=4;spacingRight=4;overflow=hidden;rotatable=0;points=[[0,0.5],[1,0.5]];portConstraint=eastwest;whiteSpace=wrap;html=1;fontSize=16;" vertex="1" parent="edPVDXVWWwwk5Bqhe34E-34">
          <mxGeometry y="130" width="315" height="26" as="geometry" />
        </mxCell>
        <mxCell id="edPVDXVWWwwk5Bqhe34E-40" value="+ comentarios: String" style="text;strokeColor=none;fillColor=none;align=left;verticalAlign=top;spacingLeft=4;spacingRight=4;overflow=hidden;rotatable=0;points=[[0,0.5],[1,0.5]];portConstraint=eastwest;whiteSpace=wrap;html=1;fontSize=16;" vertex="1" parent="edPVDXVWWwwk5Bqhe34E-34">
          <mxGeometry y="156" width="315" height="26" as="geometry" />
        </mxCell>
        <mxCell id="edPVDXVWWwwk5Bqhe34E-41" value="+ estudiante: String" style="text;strokeColor=none;fillColor=none;align=left;verticalAlign=top;spacingLeft=4;spacingRight=4;overflow=hidden;rotatable=0;points=[[0,0.5],[1,0.5]];portConstraint=eastwest;whiteSpace=wrap;html=1;fontSize=16;" vertex="1" parent="edPVDXVWWwwk5Bqhe34E-34">
          <mxGeometry y="182" width="315" height="26" as="geometry" />
        </mxCell>
        <mxCell id="edPVDXVWWwwk5Bqhe34E-42" value="+ orientador: String" style="text;strokeColor=none;fillColor=none;align=left;verticalAlign=top;spacingLeft=4;spacingRight=4;overflow=hidden;rotatable=0;points=[[0,0.5],[1,0.5]];portConstraint=eastwest;whiteSpace=wrap;html=1;fontSize=16;" vertex="1" parent="edPVDXVWWwwk5Bqhe34E-34">
          <mxGeometry y="208" width="315" height="26" as="geometry" />
        </mxCell>
        <mxCell id="edPVDXVWWwwk5Bqhe34E-43" value="" style="line;strokeWidth=1;fillColor=none;align=left;verticalAlign=middle;spacingTop=-1;spacingLeft=3;spacingRight=3;rotatable=0;labelPosition=right;points=[];portConstraint=eastwest;strokeColor=inherit;fontSize=16;" vertex="1" parent="edPVDXVWWwwk5Bqhe34E-34">
          <mxGeometry y="234" width="315" height="8" as="geometry" />
        </mxCell>
        <mxCell id="edPVDXVWWwwk5Bqhe34E-44" value="+ insert()" style="text;strokeColor=none;fillColor=none;align=left;verticalAlign=top;spacingLeft=4;spacingRight=4;overflow=hidden;rotatable=0;points=[[0,0.5],[1,0.5]];portConstraint=eastwest;whiteSpace=wrap;html=1;fontSize=16;" vertex="1" parent="edPVDXVWWwwk5Bqhe34E-34">
          <mxGeometry y="242" width="315" height="26" as="geometry" />
        </mxCell>
        <mxCell id="edPVDXVWWwwk5Bqhe34E-45" value="+ update()" style="text;strokeColor=none;fillColor=none;align=left;verticalAlign=top;spacingLeft=4;spacingRight=4;overflow=hidden;rotatable=0;points=[[0,0.5],[1,0.5]];portConstraint=eastwest;whiteSpace=wrap;html=1;fontSize=16;" vertex="1" parent="edPVDXVWWwwk5Bqhe34E-34">
          <mxGeometry y="268" width="315" height="26" as="geometry" />
        </mxCell>
        <mxCell id="edPVDXVWWwwk5Bqhe34E-46" value="+ delete()" style="text;strokeColor=none;fillColor=none;align=left;verticalAlign=top;spacingLeft=4;spacingRight=4;overflow=hidden;rotatable=0;points=[[0,0.5],[1,0.5]];portConstraint=eastwest;whiteSpace=wrap;html=1;fontSize=16;" vertex="1" parent="edPVDXVWWwwk5Bqhe34E-34">
          <mxGeometry y="294" width="315" height="26" as="geometry" />
        </mxCell>
        <mxCell id="edPVDXVWWwwk5Bqhe34E-48" value="Sistema" style="swimlane;fontStyle=1;align=center;verticalAlign=top;childLayout=stackLayout;horizontal=1;startSize=26;horizontalStack=0;resizeParent=1;resizeParentMax=0;resizeLast=0;collapsible=1;marginBottom=0;whiteSpace=wrap;html=1;fontSize=16;" vertex="1" parent="1">
          <mxGeometry x="6" y="367" width="315" height="60" as="geometry" />
        </mxCell>
        <mxCell id="edPVDXVWWwwk5Bqhe34E-57" value="" style="line;strokeWidth=1;fillColor=none;align=left;verticalAlign=middle;spacingTop=-1;spacingLeft=3;spacingRight=3;rotatable=0;labelPosition=right;points=[];portConstraint=eastwest;strokeColor=inherit;fontSize=16;" vertex="1" parent="edPVDXVWWwwk5Bqhe34E-48">
          <mxGeometry y="26" width="315" height="8" as="geometry" />
        </mxCell>
        <mxCell id="edPVDXVWWwwk5Bqhe34E-60" value="+ generarReporte()" style="text;strokeColor=none;fillColor=none;align=left;verticalAlign=top;spacingLeft=4;spacingRight=4;overflow=hidden;rotatable=0;points=[[0,0.5],[1,0.5]];portConstraint=eastwest;whiteSpace=wrap;html=1;fontSize=16;" vertex="1" parent="edPVDXVWWwwk5Bqhe34E-48">
          <mxGeometry y="34" width="315" height="26" as="geometry" />
        </mxCell>
        <mxCell id="edPVDXVWWwwk5Bqhe34E-62" value="" style="endArrow=open;html=1;endSize=12;startArrow=diamondThin;startSize=14;startFill=0;edgeStyle=orthogonalEdgeStyle;rounded=0;fontSize=12;curved=1;" edge="1" parent="1" source="edPVDXVWWwwk5Bqhe34E-1" target="edPVDXVWWwwk5Bqhe34E-34">
          <mxGeometry relative="1" as="geometry">
            <mxPoint x="368" y="344" as="sourcePoint" />
            <mxPoint x="546" y="381" as="targetPoint" />
            <Array as="points">
              <mxPoint x="164" y="293" />
              <mxPoint x="434" y="293" />
              <mxPoint x="434" y="369" />
            </Array>
            <mxPoint as="offset" />
          </mxGeometry>
        </mxCell>
        <mxCell id="edPVDXVWWwwk5Bqhe34E-63" value="1..n" style="edgeLabel;resizable=0;html=1;align=left;verticalAlign=top;fontSize=16;" connectable="0" vertex="1" parent="edPVDXVWWwwk5Bqhe34E-62">
          <mxGeometry x="-1" relative="1" as="geometry" />
        </mxCell>
        <mxCell id="edPVDXVWWwwk5Bqhe34E-64" value="1" style="edgeLabel;resizable=0;html=1;align=right;verticalAlign=top;fontSize=16;" connectable="0" vertex="1" parent="edPVDXVWWwwk5Bqhe34E-62">
          <mxGeometry x="1" relative="1" as="geometry" />
        </mxCell>
      </root>
    </mxGraphModel>
  </diagram>
</mxfile>
